<!DOCTYPE svg PUBLIC "-//W3C//DTD SVG 1.1//EN" "http://www.w3.org/Graphics/SVG/1.1/DTD/svg11.dtd">
<!-- Uploaded to: SVG Repo, www.svgrepo.com, Transformed by: SVG Repo Mixer Tools -->
<svg fill="#004880" width="800px" height="800px" viewBox="0 0 24 24" xmlns="http://www.w3.org/2000/svg" id="multi-folder" class="icon glyph" stroke="#004880">
<g id="SVGRepo_bgCarrier" stroke-width="0"/>
<g id="SVGRepo_tracerCarrier" stroke-linecap="round" stroke-linejoin="round"/>
<g id="SVGRepo_iconCarrier">
<path d="M19,7H8a4,4,0,0,0-4,4v7a2,2,0,0,1-2-2V4A2,2,0,0,1,4,2H8a2,2,0,0,1,1.41.59L11.83,5H17A2,2,0,0,1,19,7Zm1,2H8a2,2,0,0,0-2,2v9a2,2,0,0,0,2,2H20a2,2,0,0,0,2-2V11A2,2,0,0,0,20,9Z"/>
</g>
</svg>